<svg data-v-0dd9719b="" version="1.0" xmlns="http://www.w3.org/2000/svg" xmlns:xlink="http://www.w3.org/1999/xlink" width="100%" height="100%" viewBox="0 0 340.000000 250.000000" preserveAspectRatio="xMidYMid meet" color-interpolation-filters="sRGB" style="margin: auto;"> <rect data-v-0dd9719b="" x="0" y="0" width="100%" height="100%" fill="#fff" fill-opacity="1" class="background"></rect> <rect data-v-0dd9719b="" x="0" y="0" width="100%" height="100%" fill="url(#watermark)" fill-opacity="1" class="watermarklayer"></rect> <g data-v-0dd9719b="" fill="#333" class="icon-text-wrapper icon-svg-group iconsvg" transform="translate(55.68980407714844,93.39310455322266)"><g class="iconsvg-imagesvg" transform="translate(0,0)"><g><rect fill="#333" fill-opacity="0" stroke-width="2" x="0" y="0" width="60" height="63.213789034514726" class="image-rect"></rect> <svg x="0" y="0" width="60" height="63.213789034514726" filtersec="colorsb6804438204" class="image-svg-svg primary" style="overflow: visible;"><svg xmlns="http://www.w3.org/2000/svg" viewBox="0.006116670090705156 0.006116670090705156 94.90999603271484 99.99388885498047"><defs><linearGradient id="a7e7d890f-267e-4348-886f-350f594f2f58" x1="34.93" y1="68.73" x2="94.92" y2="68.73" gradientUnits="userSpaceOnUse"><stop offset="0" stop-color="#1eedc4"></stop><stop offset="1" stop-color="#1e9eed"></stop></linearGradient><linearGradient id="b121486f6-a521-4e2f-a3d9-5c8b534b652c" x1="16.82" y1="45.25" x2="48.77" y2="87.85" gradientUnits="userSpaceOnUse"><stop offset="0" stop-color="#1e9eed"></stop><stop offset="1" stop-color="#090380"></stop></linearGradient><linearGradient id="c756f81bd-29d5-43c6-aa8f-f84e21dfecfc" x1="50.23" y1="22.05" x2="102.44" y2="79.48" gradientUnits="userSpaceOnUse"><stop offset="0" stop-color="#1e9eed"></stop><stop offset="1" stop-color="#090380"></stop></linearGradient><linearGradient id="df3ba3f6f-c034-4b05-9a0f-7c63ac093bf8" x1="38.39" y1="22.98" x2="18.96" y2="53.89" gradientUnits="userSpaceOnUse"><stop offset="0" stop-color="#1eedc4"></stop><stop offset="1" stop-color="#1e9eed"></stop></linearGradient></defs><g><g><path d="M47.46 100a12.53 12.53 0 0 1-12.53-12.53c0-13 5.39-25.52 15.17-35.34 9.28-9.32 21.05-14.66 32.28-14.66a12.53 12.53 0 1 1 0 25.06C73.54 62.53 60 73.7 60 87.47A12.53 12.53 0 0 1 47.46 100z" opacity=".8" fill="url(#a7e7d890f-267e-4348-886f-350f594f2f58)"></path><path d="M47.46 100a12.53 12.53 0 0 1-12.53-12.53c0-13.77-13.56-24.94-22.4-24.94a12.53 12.53 0 0 1 0-25.06c11.24 0 23 5.34 32.28 14.66C54.6 62 60 74.5 60 87.47A12.53 12.53 0 0 1 47.46 100z" opacity=".8" fill="url(#b121486f6-a521-4e2f-a3d9-5c8b534b652c)"></path><path d="M82.38 62.53c-11.23 0-23-5.34-32.28-14.66-9.78-9.82-15.17-22.37-15.17-35.34a12.53 12.53 0 0 1 25.06 0C60 26.3 73.54 37.47 82.38 37.47a12.53 12.53 0 1 1 0 25.06z" opacity=".8" fill="url(#c756f81bd-29d5-43c6-aa8f-f84e21dfecfc)"></path><path d="M12.53 62.53a12.53 12.53 0 0 1 0-25.06c8.84 0 22.4-11.17 22.4-24.94a12.53 12.53 0 0 1 25.06 0c0 13-5.39 25.52-15.18 35.34-9.27 9.32-21.04 14.66-32.28 14.66z" opacity=".8" fill="url(#df3ba3f6f-c034-4b05-9a0f-7c63ac093bf8)"></path></g></g></svg></svg> <!----></g></g> <g transform="translate(67,7.935646057128906)"><g data-gra="path-name" fill-rule="" class="tp-name iconsvg-namesvg" transform="translate(0,0)"><g transform="scale(1)"><g><path d="M27.4 0.36L29.79 0.36C30.64 0.36 31.18-0.09 31.18-0.99L31.36-10.04C31.36-10.62 31.68-10.93 32.27-10.93L33.25-10.93C33.84-10.93 34.16-10.62 34.16-10.04L34.16-2.52C34.16-2.11 34.06-1.75 33.8-1.4L33.34-0.77C32.89-0.14 33.39 0.36 34.52 0.36L37.53 0.36C38.61 0.36 39.51-0.4 39.51-1.48L39.51-29.65C39.51-30.51 39.02-31 38.16-31L28.04-31C27.18-31 26.64-30.55 26.64-29.65L26.1-0.99C26.1-0.14 26.55 0.36 27.4 0.36ZM11.56-24.79L11.56-23.54C11.56-22.68 12.01-22.18 12.87-22.18L14.31-22.18C14.89-22.18 15.21-21.87 15.21-21.29L15.21-18.72C15.21-18.13 14.89-17.82 14.31-17.82L13.05-17.82C12.2-17.82 11.7-17.37 11.7-16.47L11.65-3.38C11.65-2.52 12.15-2.02 13-2.02L23.58-2.02C24.43-2.02 24.93-2.48 24.93-3.38L24.97-16.47C24.97-17.32 24.48-17.82 23.63-17.82L22.36-17.82C21.78-17.82 21.46-18.13 21.46-18.72L21.46-21.29C21.46-21.87 21.78-22.18 22.36-22.18L23.94-22.18C24.79-22.18 25.33-22.63 25.33-23.54L25.33-24.79C25.33-25.65 24.84-26.14 23.98-26.14L22.36-26.14C21.78-26.14 21.46-26.46 21.46-27.04L21.46-30.55C21.46-31.41 20.97-31.9 20.11-31.9L15.43-31.9C14.35-31.9 13.95-31.18 14.54-30.29L14.89-29.7C15.12-29.29 15.21-29.02 15.21-28.62L15.21-27.04C15.21-26.46 14.89-26.14 14.31-26.14L12.91-26.14C12.06-26.14 11.56-25.7 11.56-24.79ZM8.5-0.81L10.21-10.89C10.35-11.83 9.86-12.33 8.96-12.33L5.31-12.33C4.5-12.33 3.96-11.97 3.82-11.12L2.11-1.03C1.98-0.14 2.48 0.4 3.38 0.4L7.02 0.4C7.83 0.4 8.37 0.04 8.5-0.81ZM10.21-15.52L9.27-20.52C9.13-21.33 8.64-21.73 7.83-21.73L4.14-21.73C3.24-21.73 2.75-21.2 2.92-20.25L3.82-15.25C3.96-14.45 4.5-14.04 5.31-14.04L9-14.04C9.9-14.04 10.39-14.58 10.21-15.52ZM10.21-24.93L9.27-29.92C9.13-30.73 8.64-31.14 7.83-31.14L4.14-31.14C3.24-31.14 2.75-30.6 2.92-29.65L3.82-24.66C3.96-23.85 4.5-23.45 5.31-23.45L9-23.45C9.9-23.45 10.39-23.98 10.21-24.93ZM17.1-6.71L17.1-13C17.1-13.59 17.41-13.9 18-13.9L18.45-13.9C19.04-13.9 19.35-13.59 19.35-13L19.35-6.71C19.35-6.12 19.04-5.8 18.45-5.8L18-5.8C17.41-5.8 17.1-6.12 17.1-6.71ZM32.45-19.17L33.25-19.17C33.84-19.17 34.16-18.86 34.16-18.27L34.16-15.25C34.16-14.67 33.84-14.35 33.25-14.35L32.31-14.35C31.72-14.35 31.41-14.63 31.41-15.25L31.5-18.27C31.5-18.81 31.9-19.17 32.45-19.17ZM32.63-27.31L33.25-27.31C33.84-27.31 34.16-27 34.16-26.41L34.16-23.49C34.16-22.9 33.84-22.59 33.25-22.59L32.53-22.59C31.95-22.59 31.63-22.86 31.63-23.49L31.72-26.41C31.72-27 32.04-27.31 32.63-27.31ZM78.3-25.29L73.22-23.04C72.58-22.77 72.18-23.09 72.18-23.76L72.18-30.64C72.18-31.5 71.69-31.99 70.83-31.99L64.26-31.99C63.18-31.99 62.77-31.27 63.36-30.38L63.72-29.79C63.94-29.38 64.03-29.11 64.03-28.71L64.03-1.71C64.03-0.85 64.53-0.36 65.38-0.36L79.38-0.36C80.23-0.36 80.73-0.85 80.73-1.71L80.73-6.3C80.73-7.51 79.92-7.83 79.06-6.97L78.03-5.94C77.67-5.58 77.4-5.49 76.95-5.49L73.08-5.49C72.5-5.49 72.18-5.8 72.18-6.39L72.18-16.7C72.18-17.19 72.41-17.55 72.85-17.77L78.84-20.43C79.52-20.75 79.88-21.24 79.88-22L79.88-24.3C79.88-25.29 79.25-25.7 78.3-25.29ZM52.16 0.4L57.55 0.4C58.41 0.4 58.91-0.09 58.91-0.94L58.91-30.64C58.91-31.5 58.41-31.99 57.55-31.99L51.03-31.99C49.95-31.99 49.55-31.27 50.13-30.38L50.49-29.79C50.71-29.38 50.8-29.11 50.8-28.71L50.8-24.34C50.8-23.76 50.49-23.45 49.91-23.45L45.31-23.45C44.46-23.45 43.96-22.95 43.96-22.09L43.96-20.52C43.96-19.66 44.46-19.17 45.31-19.17L49.91-19.17C50.49-19.17 50.8-18.86 50.8-18.27L50.8-10.62C50.8-10.08 50.53-9.76 49.95-9.67L44.82-9.04C44.01-8.96 43.56-8.46 43.56-7.65L43.52-6.08C43.52-5.13 44.05-4.72 44.95-4.81L49.86-5.4C50.45-5.49 50.8-5.13 50.8-4.54L50.8-0.94C50.8-0.09 51.3 0.4 52.16 0.4ZM107.05 0.4L110.75 0.4C111.6 0.4 112.09-0.09 112.09-0.94L112.09-16.56C112.09-17.14 112.41-17.46 113-17.46L113.31-17.46C113.89-17.46 114.21-17.14 114.21-16.56L114.21-0.94C114.21-0.09 114.7 0.4 115.56 0.4L119.29 0.4C120.15 0.4 120.64-0.09 120.64-0.94L120.64-16.56C120.64-17.14 120.96-17.46 121.5-17.46 122.04-17.46 122.35-17.95 122.35-18.81L122.35-20.38C122.35-21.24 121.86-21.73 121-21.73L113-21.73C112.41-21.73 112.09-22.05 112.09-22.63L112.14-25.38C112.14-25.96 112.41-26.23 112.95-26.32L120.28-27.54C121.09-27.68 121.5-28.17 121.5-28.98L121.5-30.51C121.5-31.41 120.96-31.9 120.06-31.77L106.92-29.61C106.11-29.47 105.7-28.98 105.7-28.17L105.7-0.94C105.7-0.09 106.2 0.4 107.05 0.4ZM85.59-14.8L85.59-13.23C85.59-12.38 86.08-11.88 86.94-11.88L90.27-11.88C90.85-11.88 91.17-11.56 91.17-10.98L91.17-2.79C91.17-2.34 91.03-1.98 90.77-1.67L90.09-0.9C89.5-0.18 90.05 0.4 91.17 0.4L94.91 0.4C96.66 0.4 98.01-0.81 98.01-2.56L98.01-10.98C98.01-11.56 98.32-11.88 98.91-11.88L102.19-11.88C103.05-11.88 103.55-12.38 103.55-13.23L103.55-14.8C103.55-15.66 103.05-16.16 102.19-16.16L98.91-16.16C98.32-16.16 98.01-16.43 98.01-16.83 98.01-17.23 98.32-17.46 98.91-17.46L103.05-17.46C103.91-17.46 104.4-17.95 104.4-18.81L104.4-20.38C104.4-21.24 103.91-21.73 103.05-21.73L102.47-21.73C101.83-21.73 101.52-22.14 101.75-22.77L101.83-23.04C102.1-23.85 101.66-24.3 100.66-24.3L97.47-24.3C96.7-24.3 96.16-23.98 95.89-23.22L95.63-22.45C95.44-21.96 95.13-21.73 94.63-21.73L94.5-21.73C94-21.73 93.69-21.96 93.51-22.45L93.24-23.22C92.97-23.98 92.43-24.3 91.66-24.3L88.47-24.3C87.48-24.3 87.08-23.71 87.39-22.77L87.39-22.77C87.61-22.14 87.3-21.73 86.67-21.73L86.08-21.73C85.23-21.73 84.73-21.24 84.73-20.38L84.73-18.81C84.73-17.95 85.23-17.46 86.08-17.46L90.27-17.46C90.85-17.46 91.17-17.23 91.17-16.83 91.17-16.43 90.85-16.16 90.27-16.16L86.94-16.16C86.08-16.16 85.59-15.66 85.59-14.8ZM85.59-28.08L85.59-26.5C85.59-25.65 86.08-25.15 86.94-25.15L102.19-25.15C103.05-25.15 103.55-25.65 103.55-26.5L103.55-28.08C103.55-28.93 103.05-29.43 102.19-29.43L98.91-29.43C98.32-29.43 98.01-29.74 98.01-30.33L98.01-30.73C98.01-31.54 97.52-31.99 96.66-31.99L91.94-31.99C90.81-31.99 90.41-31.27 91.08-30.33L91.13-30.29C91.13-30.29 91.17-30.11 91.17-29.83 91.17-29.61 90.85-29.43 90.27-29.43L86.94-29.43C86.08-29.43 85.59-28.93 85.59-28.08ZM101.38-2.07L102.91-2.07C103.81-2.07 104.31-2.56 104.17-3.51L103.27-9.36C103.14-10.21 102.64-10.62 101.83-10.62L100.3-10.62C99.41-10.62 98.91-10.13 99.05-9.18L99.94-3.33C100.08-2.48 100.57-2.07 101.38-2.07ZM88.83-10.62L87.3-10.62C86.49-10.62 85.99-10.21 85.86-9.36L84.96-3.51C84.83-2.56 85.32-2.07 86.22-2.07L87.75-2.07C88.56-2.07 89.05-2.48 89.19-3.33L90.09-9.18C90.22-10.13 89.73-10.62 88.83-10.62ZM157.77-16.88L159.52-16.88C161.28-16.88 162.76-18.27 162.76-20.02L162.76-28.08C162.76-28.93 162.27-29.43 161.41-29.43L158.8-29.43C158.22-29.43 157.9-29.74 157.9-30.33L157.9-30.64C157.9-31.41 157.41-31.81 156.55-31.81L153.31-31.81C152.14-31.81 151.78-31 152.55-30.15 152.59-30.11 152.59-30.02 152.59-29.79 152.59-29.61 152.28-29.43 151.69-29.43L150.12-29.43C149.26-29.43 148.77-28.93 148.77-28.08L148.77-13.41C148.77-12.55 149.26-12.06 150.12-12.06L157.36-12.06C157.95-12.06 158.26-11.74 158.26-11.16L158.26-4.32C158.26-3.73 157.95-3.42 157.36-3.42L153-3.42C152.32-3.42 151.83-3.24 151.38-2.65L150.3-1.3C149.58-0.4 149.94 0.36 151.06 0.36L160.65 0.36C162.4 0.36 163.71-0.85 163.71-2.61L163.71-14.45C163.71-15.3 163.21-15.79 162.36-15.79L154.66-15.79C154.08-15.79 153.76-16.11 153.76-16.7L153.76-25.02C153.76-25.61 154.08-25.92 154.66-25.92L157.36-25.92C157.95-25.92 158.26-25.61 158.26-25.02L158.26-20.56C158.26-20.16 158.17-19.8 157.9-19.44L157.14-18.4C156.51-17.59 156.82-16.88 157.77-16.88ZM127.48 0.32L128.92 0.32C129.78 0.32 130.27-0.09 130.32-0.99L130.59-9.76C130.59-10.3 130.99-10.66 131.53-10.66L131.53-10.66C132.12-10.66 132.44-10.35 132.44-9.76L132.44-3.42C132.44-3.01 132.34-2.75 132.12-2.34L131.49-1.26C130.95-0.36 131.31 0.32 132.39 0.32L134.73 0.32C135.76 0.32 136.57-0.81 136.57-2.56L136.57-29.79C136.57-30.64 136.08-31.14 135.22-31.14L128.47-31.14C127.62-31.14 127.12-30.69 127.08-29.79L126.18-1.03C126.13-0.18 126.63 0.32 127.48 0.32ZM138.51 0.32L139.91 0.32C140.76 0.32 141.25-0.09 141.3-0.99L141.57-9.76C141.57-10.3 141.97-10.66 142.51-10.66L142.6-10.66C143.19-10.66 143.5-10.35 143.5-9.76L143.5-3.42C143.5-3.01 143.41-2.75 143.19-2.34L142.51-1.26C141.97-0.36 142.38 0.32 143.46 0.32L145.75 0.32C146.79 0.32 147.6-0.81 147.6-2.56L147.6-29.79C147.6-30.64 147.1-31.14 146.25-31.14L139.5-31.14C138.64-31.14 138.15-30.69 138.1-29.79L137.2-1.03C137.16-0.18 137.66 0.32 138.51 0.32ZM148.45-8.59L148.45-7.25C148.45-6.39 148.95-5.89 149.8-5.89L156.06-5.89C156.91-5.89 157.41-6.39 157.41-7.25L157.41-8.59C157.41-9.45 156.91-9.95 156.06-9.95L149.8-9.95C148.95-9.95 148.45-9.45 148.45-8.59ZM155.83-24.57L155.7-24.57C154.8-24.57 154.35-24.03 154.44-23.13L154.71-20.93C154.8-20.11 155.29-19.66 156.1-19.66L156.24-19.66C157.09-19.66 157.59-20.16 157.5-21.06L157.27-23.31C157.19-24.12 156.64-24.57 155.83-24.57ZM142.74-18.77C143.28-18.77 143.55-18.45 143.55-17.86L143.55-15.43C143.55-14.85 143.23-14.54 142.65-14.54L142.65-14.54C142.06-14.54 141.75-14.8 141.79-15.43L141.88-17.86C141.93-18.4 142.24-18.77 142.74-18.77ZM131.71-18.77C132.21-18.77 132.48-18.45 132.48-17.86L132.48-15.43C132.48-14.85 132.16-14.54 131.63-14.54 131.08-14.54 130.77-14.8 130.81-15.43L130.91-17.86C130.95-18.4 131.22-18.77 131.71-18.77ZM142.92-27.22C143.37-27.22 143.59-26.91 143.59-26.32L143.59-23.49C143.59-22.9 143.32-22.59 142.83-22.59 142.33-22.59 142.06-22.86 142.06-23.49L142.15-26.32C142.15-26.86 142.47-27.22 142.92-27.22ZM131.89-27.31C132.3-27.31 132.52-27 132.52-26.41L132.52-23.49C132.52-22.9 132.25-22.59 131.8-22.59 131.35-22.59 131.08-22.86 131.08-23.49L131.17-26.41C131.17-26.95 131.49-27.31 131.89-27.31Z" transform="translate(-2.08962082862854, 31.989999771118164)"></path></g> <!----> <!----> <!----> <!----> <!----> <!----> <!----></g></g> <g data-gra="path-slogan" fill-rule="" class="tp-slogan iconsvg-slogansvg" fill="#333" transform="translate(5,38.38999938964844)"><rect x="0" height="1" y="3.9750003814697266" width="26.870197296142578"></rect> <rect height="1" y="3.9750003814697266" width="26.870197296142578" x="124.75019454956055"></rect> <g transform="translate(29.870197296142578,0)"><g transform="scale(1)"><path d="M2.06-5.06L6.56-5.06L6.56-8.58L7.73-8.58L7.73 0L6.56 0L6.56-3.98L2.06-3.98L2.06 0L0.89 0L0.89-8.58L2.06-8.58L2.06-5.06ZM15.19-3.19L15.19-8.58L16.36-8.58L16.36-3.05Q16.22 0.05 12.84 0.14L12.84 0.14Q9.70 0.05 9.56-2.86L9.56-2.86L9.56-8.58L10.73-8.58L10.73-3.19Q10.78-0.84 12.89-0.80L12.89-0.80Q15.19-0.84 15.19-3.19L15.19-3.19ZM21.38-7.64L19.31-7.64L19.31-4.97L21.38-4.97Q23.20-4.92 23.16-6.38L23.16-6.38Q23.16-7.64 21.38-7.64L21.38-7.64ZM21.84 0L18.14 0L18.14-8.58L21.94-8.58Q24.23-8.48 24.33-6.42L24.33-6.42Q24.33-5.16 23.20-4.64L23.20-4.64Q24.80-4.08 24.80-2.53L24.80-2.53Q24.66-0.09 21.84 0L21.84 0ZM21.56-3.98L19.31-3.98L19.31-0.98L21.80-0.98Q23.58-1.03 23.63-2.53L23.63-2.53Q23.63-3.98 21.56-3.98L21.56-3.98ZM27.42-1.03L32.58-1.03L32.58 0L26.25 0L26.25-8.58L32.48-8.58L32.48-7.59L27.42-7.59L27.42-4.92L32.11-4.92L32.11-3.89L27.42-3.89L27.42-1.03ZM34.27-8.58L35.44-8.58L35.44 0L34.27 0L34.27-8.58ZM47.48-8.58L44.58-4.41L47.63 0L46.17 0L43.83-3.52L41.48 0L40.08 0L43.17-4.41L40.27-8.58L41.72-8.58L43.88-5.30L46.08-8.58L47.48-8.58ZM48.89-8.58L50.06-8.58L50.06 0L48.89 0L48.89-8.58ZM53.44-8.58L57.75-1.64L57.75-8.58L58.88-8.58L58.88 0L57.56 0L53.20-6.94L53.16-6.94L53.16 0L52.03 0L52.03-8.58L53.44-8.58ZM64.31-7.64L61.97-7.64L61.97-4.64L64.27-4.64Q66.05-4.64 66.05-6.19L66.05-6.19Q66.05-7.59 64.31-7.64L64.31-7.64ZM64.69-3.61L61.97-3.61L61.97 0L60.80 0L60.80-8.58L64.69-8.58Q67.13-8.48 67.22-6.19L67.22-6.19Q67.08-3.70 64.69-3.61L64.69-3.61ZM69.94-1.03L75.09-1.03L75.09 0L68.77 0L68.77-8.58L75-8.58L75-7.59L69.94-7.59L69.94-4.92L74.63-4.92L74.63-3.89L69.94-3.89L69.94-1.03ZM78-8.58L82.31-1.64L82.31-8.58L83.44-8.58L83.44 0L82.13 0L77.77-6.94L77.72-6.94L77.72 0L76.59 0L76.59-8.58L78-8.58ZM91.64-3.61L89.02-3.61L89.02-4.59L92.77-4.59L92.77 0L92.02 0L91.73-1.08Q90.75 0.09 88.92 0.14L88.92 0.14Q87.19 0.14 86.25-0.75L86.25-0.75Q84.84-2.06 84.89-4.36L84.89-4.36Q85.22-8.63 88.97-8.81L88.97-8.81Q92.16-8.63 92.63-6L92.63-6L91.50-6Q91.03-7.78 88.92-7.83L88.92-7.83Q86.25-7.64 86.11-4.31L86.11-4.31Q86.11-0.75 88.97-0.75L88.97-0.75Q90-0.75 90.75-1.31L90.75-1.31Q91.69-2.06 91.64-3.61L91.64-3.61Z" transform="translate(-0.890625, 8.8125)"></path></g></g></g></g></g><defs v-gra="od"></defs></svg>